<svg width="28" height="28" viewBox="0 0 28 28" fill="none" xmlns="http://www.w3.org/2000/svg">
<path d="M14 0C6.2804 0 0 6.2804 0 14C0 21.7196 6.2804 28 14 28C21.7196 28 28 21.7196 28 14C28 6.2804 21.7196 0 14 0ZM14 5.74C14.36 5.74 14.7118 5.84674 15.0111 6.04673C15.3104 6.24671 15.5437 6.53095 15.6815 6.86352C15.8192 7.19608 15.8553 7.56202 15.785 7.91506C15.7148 8.26811 15.5415 8.5924 15.2869 8.84693C15.0324 9.10147 14.7081 9.2748 14.3551 9.34503C14.002 9.41525 13.6361 9.37921 13.3035 9.24146C12.971 9.10371 12.6867 8.87043 12.4867 8.57114C12.2867 8.27184 12.18 7.91996 12.18 7.56C12.18 7.07731 12.3717 6.61438 12.7131 6.27307C13.0544 5.93175 13.5173 5.74 14 5.74ZM17.36 21.56H11.2C10.903 21.56 10.6181 21.442 10.408 21.232C10.198 21.0219 10.08 20.737 10.08 20.44C10.08 20.143 10.198 19.8581 10.408 19.648C10.6181 19.438 10.903 19.32 11.2 19.32H13.16V13.16H12.04C11.743 13.16 11.4581 13.042 11.248 12.832C11.038 12.6219 10.92 12.337 10.92 12.04C10.92 11.743 11.038 11.4581 11.248 11.248C11.4581 11.038 11.743 10.92 12.04 10.92H14.28C14.577 10.92 14.8619 11.038 15.072 11.248C15.282 11.4581 15.4 11.743 15.4 12.04V19.32H17.36C17.657 19.32 17.9419 19.438 18.152 19.648C18.362 19.8581 18.48 20.143 18.48 20.44C18.48 20.737 18.362 21.0219 18.152 21.232C17.9419 21.442 17.657 21.56 17.36 21.56Z" fill="#333333"/>
</svg>
