<svg width="28" height="28" viewBox="0 0 28 28" fill="none" xmlns="http://www.w3.org/2000/svg">
<path d="M0 14C0 10.287 1.475 6.72601 4.10051 4.10051C6.72601 1.475 10.287 0 14 0C17.713 0 21.274 1.475 23.8995 4.10051C26.525 6.72601 28 10.287 28 14C28 17.713 26.525 21.274 23.8995 23.8995C21.274 26.525 17.713 28 14 28C10.287 28 6.72601 26.525 4.10051 23.8995C1.475 21.274 0 17.713 0 14ZM13.125 1.88475C11.9525 2.24175 10.7887 3.31975 9.82275 5.131C9.50448 5.73317 9.23075 6.35784 9.00375 7H13.125V1.88475ZM7.1575 7C7.44918 6.07043 7.82403 5.16904 8.2775 4.30675C8.58009 3.7346 8.92953 3.18848 9.32225 2.674C7.15401 3.5732 5.28851 5.07434 3.94625 7H7.1575ZM6.139 13.125C6.1915 11.5903 6.3805 10.1185 6.685 8.75H2.9295C2.27696 10.1238 1.88757 11.6078 1.7815 13.125H6.139ZM8.48225 8.75C8.13805 10.1847 7.93988 11.6505 7.89075 13.125H13.125V8.75H8.48225ZM14.875 8.75V13.125H20.1075C20.059 11.6505 19.8614 10.1847 19.5177 8.75H14.875ZM7.8925 14.875C7.94105 16.3495 8.13864 17.8153 8.48225 19.25H13.125V14.875H7.8925ZM14.875 14.875V19.25H19.5177C19.845 17.9112 20.0532 16.436 20.1093 14.875H14.875ZM9.00375 21C9.24525 21.6755 9.52 22.302 9.82275 22.869C10.7887 24.6803 11.9543 25.7565 13.125 26.1152V21H9.00375ZM9.32225 25.326C8.92951 24.8115 8.58006 24.2654 8.2775 23.6932C7.82403 22.831 7.44919 21.9296 7.1575 21H3.94625C5.28844 22.9257 7.15396 24.4269 9.32225 25.326ZM6.685 19.25C6.36854 17.8116 6.18576 16.347 6.139 14.875H1.7815C1.89 16.4325 2.29075 17.9077 2.9295 19.25H6.685ZM18.6777 25.326C20.846 24.4269 22.7116 22.9257 24.0537 21H20.8425C20.5508 21.9296 20.1759 22.831 19.7225 23.6932C19.42 24.2655 19.0705 24.8116 18.6777 25.326ZM14.875 21V26.1152C16.0475 25.7583 17.2113 24.6803 18.1772 22.869C18.48 22.302 18.7547 21.6755 18.9963 21H14.875ZM21.315 19.25H25.0705C25.7092 17.9077 26.11 16.4325 26.2185 14.875H21.861C21.8143 16.347 21.6315 17.8116 21.315 19.25ZM26.2185 13.125C26.1124 11.6078 25.723 10.1239 25.0705 8.75H21.315C21.6195 10.1185 21.8085 11.5903 21.861 13.125H26.2185ZM19.7225 4.30675C20.1548 5.11875 20.531 6.02175 20.8425 7H24.0537C22.7116 5.07427 20.846 3.57311 18.6777 2.674C19.0592 3.171 19.4093 3.7205 19.7225 4.30675ZM18.9963 7C18.7693 6.35783 18.4955 5.73316 18.1772 5.131C17.2113 3.31975 16.0475 2.2435 14.875 1.88475V7H18.9963Z" fill="#333333"/>
</svg>
