<svg width="30" height="30" viewBox="0 0 30 30" fill="none" xmlns="http://www.w3.org/2000/svg">
<path d="M7.5 22.5H22.5V19.5H7.5V22.5ZM15 18L21 12L18.9 9.9L16.5 12.225V6H13.5V12.225L11.1 9.9L9 12L15 18ZM15 30C12.925 30 10.975 29.606 9.15 28.818C7.325 28.031 5.7375 26.9625 4.3875 25.6125C3.0375 24.2625 1.969 22.675 1.182 20.85C0.394 19.025 0 17.075 0 15C0 12.925 0.394 10.975 1.182 9.15C1.969 7.325 3.0375 5.7375 4.3875 4.3875C5.7375 3.0375 7.325 1.9685 9.15 1.1805C10.975 0.3935 12.925 0 15 0C17.075 0 19.025 0.3935 20.85 1.1805C22.675 1.9685 24.2625 3.0375 25.6125 4.3875C26.9625 5.7375 28.031 7.325 28.818 9.15C29.606 10.975 30 12.925 30 15C30 17.075 29.606 19.025 28.818 20.85C28.031 22.675 26.9625 24.2625 25.6125 25.6125C24.2625 26.9625 22.675 28.031 20.85 28.818C19.025 29.606 17.075 30 15 30Z" fill="#333333"/>
</svg>
