<svg width="30" height="30" viewBox="0 0 30 30" fill="none" xmlns="http://www.w3.org/2000/svg">
<path d="M15 0C6.7125 0 2.18932e-06 6.88245 2.18932e-06 15.3798C-0.00169914 18.6084 0.988222 21.7556 2.82933 24.3749C4.67043 26.9942 7.26922 28.9526 10.257 29.9721C11.007 30.1059 11.2875 29.6445 11.2875 29.24C11.2875 28.8755 11.268 27.6652 11.268 26.3763C7.5 27.0884 6.525 25.4351 6.225 24.5692C6.0555 24.1263 5.325 22.7621 4.6875 22.396C4.1625 22.1084 3.4125 21.3964 4.668 21.3779C5.85 21.3579 6.693 22.4929 6.975 22.9543C8.325 25.2797 10.482 24.6261 11.343 24.2232C11.475 23.2235 11.868 22.5514 12.3 22.1669C8.9625 21.7824 5.475 20.4551 5.475 14.5723C5.475 12.899 6.0555 11.5164 7.0125 10.4383C6.8625 10.0538 6.3375 8.47734 7.1625 6.36262C7.1625 6.36262 8.418 5.95967 11.2875 7.94058C12.5086 7.59309 13.7703 7.4182 15.0375 7.42074C16.3125 7.42074 17.5875 7.593 18.7875 7.93904C21.6555 5.93967 22.9125 6.36415 22.9125 6.36415C23.7375 8.47887 23.2125 10.0553 23.0625 10.4398C24.018 11.5164 24.6 12.8806 24.6 14.5723C24.6 20.4751 21.0945 21.7824 17.757 22.1669C18.3 22.6467 18.7695 23.5695 18.7695 25.0121C18.7695 27.0684 18.75 28.7217 18.75 29.2416C18.75 29.6445 19.032 30.1244 19.782 29.9706C22.7595 28.9398 25.3469 26.9777 27.1799 24.3603C29.0128 21.7429 29.9991 18.602 30 15.3798C30 6.88245 23.2875 0 15 0Z" fill="#333333"/>
</svg>
